<mxfile host="Electron" modified="2024-05-23T08:27:49.652Z" agent="Mozilla/5.0 (Windows NT 10.0; Win64; x64) AppleWebKit/537.36 (KHTML, like Gecko) draw.io/24.4.0 Chrome/120.0.6099.109 Electron/28.1.0 Safari/537.36" etag="MBxzHQz_cpmrvyuPdbOf" version="24.4.0" type="device">
  <diagram id="Us3ODp1McBXTMFddmokU" name="Page-1">
    <mxGraphModel dx="1247" dy="1261" grid="1" gridSize="10" guides="1" tooltips="1" connect="1" arrows="1" fold="1" page="1" pageScale="1" pageWidth="850" pageHeight="1100" math="0" shadow="0">
      <root>
        <mxCell id="0" />
        <mxCell id="1" parent="0" />
        <mxCell id="8kiIrgNkBxjkIp-F2U6g-25" style="edgeStyle=orthogonalEdgeStyle;rounded=0;orthogonalLoop=1;jettySize=auto;html=1;startArrow=diamondThin;startFill=1;" edge="1" parent="1" source="8kiIrgNkBxjkIp-F2U6g-1" target="8kiIrgNkBxjkIp-F2U6g-3">
          <mxGeometry relative="1" as="geometry" />
        </mxCell>
        <mxCell id="8kiIrgNkBxjkIp-F2U6g-26" style="edgeStyle=orthogonalEdgeStyle;rounded=0;orthogonalLoop=1;jettySize=auto;html=1;startArrow=diamondThin;startFill=1;" edge="1" parent="1" source="8kiIrgNkBxjkIp-F2U6g-1" target="8kiIrgNkBxjkIp-F2U6g-7">
          <mxGeometry relative="1" as="geometry" />
        </mxCell>
        <UserObject label="Inspectable" link="references/eClassifiers/Inspectable/index.html" id="8kiIrgNkBxjkIp-F2U6g-1">
          <mxCell style="rounded=0;whiteSpace=wrap;html=1;fillColor=#d5e8d4;strokeColor=#82b366;" vertex="1" parent="1">
            <mxGeometry x="340" y="240" width="100" height="40" as="geometry" />
          </mxCell>
        </UserObject>
        <UserObject label="Severity" link="references/eClassifiers/Severity/index.html" id="8kiIrgNkBxjkIp-F2U6g-2">
          <mxCell style="rounded=0;whiteSpace=wrap;html=1;fillColor=#d5e8d4;strokeColor=#82b366;" vertex="1" parent="1">
            <mxGeometry x="640" y="310" width="100" height="40" as="geometry" />
          </mxCell>
        </UserObject>
        <UserObject label="Waiver" link="references/eClassifiers/Waiver/index.html" id="8kiIrgNkBxjkIp-F2U6g-3">
          <mxCell style="rounded=0;whiteSpace=wrap;html=1;fillColor=#d5e8d4;strokeColor=#82b366;" vertex="1" parent="1">
            <mxGeometry x="180" y="370" width="100" height="40" as="geometry" />
          </mxCell>
        </UserObject>
        <UserObject label="Action" link="references/eClassifiers/Action/index.html" id="8kiIrgNkBxjkIp-F2U6g-4">
          <mxCell style="rounded=0;whiteSpace=wrap;html=1;fillColor=#d5e8d4;strokeColor=#82b366;" vertex="1" parent="1">
            <mxGeometry x="405" y="560" width="100" height="40" as="geometry" />
          </mxCell>
        </UserObject>
        <mxCell id="8kiIrgNkBxjkIp-F2U6g-37" style="edgeStyle=orthogonalEdgeStyle;rounded=0;orthogonalLoop=1;jettySize=auto;html=1;" edge="1" parent="1" source="8kiIrgNkBxjkIp-F2U6g-5" target="8kiIrgNkBxjkIp-F2U6g-8">
          <mxGeometry relative="1" as="geometry">
            <Array as="points">
              <mxPoint x="690" y="400" />
              <mxPoint x="690" y="400" />
            </Array>
          </mxGeometry>
        </mxCell>
        <UserObject label="Inspector" link="https://javadoc.io/doc/org.nasdanika.models.rules/model/latest/org.nasdanika.models.rules/org/nasdanika/models/rules/Inspector.html" id="8kiIrgNkBxjkIp-F2U6g-5">
          <mxCell style="rounded=0;whiteSpace=wrap;html=1;fillColor=#dae8fc;strokeColor=#6c8ebf;" vertex="1" parent="1">
            <mxGeometry x="760" y="370" width="100" height="40" as="geometry" />
          </mxCell>
        </UserObject>
        <mxCell id="8kiIrgNkBxjkIp-F2U6g-36" style="edgeStyle=orthogonalEdgeStyle;rounded=0;orthogonalLoop=1;jettySize=auto;html=1;" edge="1" parent="1" source="8kiIrgNkBxjkIp-F2U6g-6" target="8kiIrgNkBxjkIp-F2U6g-9">
          <mxGeometry relative="1" as="geometry">
            <Array as="points">
              <mxPoint x="690" y="250" />
              <mxPoint x="690" y="250" />
            </Array>
          </mxGeometry>
        </mxCell>
        <UserObject label="Inspector Set" link="https://javadoc.io/doc/org.nasdanika.models.rules/model/latest/org.nasdanika.models.rules/org/nasdanika/models/rules/reflection/InspectorSet.html" id="8kiIrgNkBxjkIp-F2U6g-6">
          <mxCell style="rounded=0;whiteSpace=wrap;html=1;fillColor=#dae8fc;strokeColor=#6c8ebf;" vertex="1" parent="1">
            <mxGeometry x="760" y="240" width="100" height="40" as="geometry" />
          </mxCell>
        </UserObject>
        <mxCell id="8kiIrgNkBxjkIp-F2U6g-29" style="edgeStyle=orthogonalEdgeStyle;rounded=0;orthogonalLoop=1;jettySize=auto;html=1;" edge="1" parent="1" source="8kiIrgNkBxjkIp-F2U6g-7" target="8kiIrgNkBxjkIp-F2U6g-8">
          <mxGeometry relative="1" as="geometry" />
        </mxCell>
        <UserObject label="Inspection Result" link="references/eClassifiers/InspectionResult/index.html" id="8kiIrgNkBxjkIp-F2U6g-7">
          <mxCell style="rounded=0;whiteSpace=wrap;html=1;fillColor=#d5e8d4;strokeColor=#82b366;" vertex="1" parent="1">
            <mxGeometry x="340" y="370" width="100" height="40" as="geometry" />
          </mxCell>
        </UserObject>
        <mxCell id="8kiIrgNkBxjkIp-F2U6g-32" style="edgeStyle=orthogonalEdgeStyle;rounded=0;orthogonalLoop=1;jettySize=auto;html=1;endArrow=none;endFill=0;" edge="1" parent="1" source="8kiIrgNkBxjkIp-F2U6g-8" target="8kiIrgNkBxjkIp-F2U6g-2">
          <mxGeometry relative="1" as="geometry">
            <Array as="points">
              <mxPoint x="690" y="380" />
            </Array>
          </mxGeometry>
        </mxCell>
        <UserObject label="Rule" link="references/eClassifiers/Rule/index.html" id="8kiIrgNkBxjkIp-F2U6g-8">
          <mxCell style="rounded=0;whiteSpace=wrap;html=1;fillColor=#d5e8d4;strokeColor=#82b366;" vertex="1" parent="1">
            <mxGeometry x="520" y="370" width="100" height="40" as="geometry" />
          </mxCell>
        </UserObject>
        <mxCell id="8kiIrgNkBxjkIp-F2U6g-31" style="edgeStyle=orthogonalEdgeStyle;rounded=0;orthogonalLoop=1;jettySize=auto;html=1;startArrow=diamondThin;startFill=1;" edge="1" parent="1" source="8kiIrgNkBxjkIp-F2U6g-9" target="8kiIrgNkBxjkIp-F2U6g-8">
          <mxGeometry relative="1" as="geometry" />
        </mxCell>
        <UserObject label="Rule Set" link="references/eClassifiers/RuleSet/index.html" id="8kiIrgNkBxjkIp-F2U6g-9">
          <mxCell style="rounded=0;whiteSpace=wrap;html=1;fillColor=#d5e8d4;strokeColor=#82b366;" vertex="1" parent="1">
            <mxGeometry x="520" y="240" width="100" height="40" as="geometry" />
          </mxCell>
        </UserObject>
        <mxCell id="8kiIrgNkBxjkIp-F2U6g-27" style="edgeStyle=orthogonalEdgeStyle;rounded=0;orthogonalLoop=1;jettySize=auto;html=1;endArrow=block;endFill=0;" edge="1" parent="1" source="8kiIrgNkBxjkIp-F2U6g-10" target="8kiIrgNkBxjkIp-F2U6g-7">
          <mxGeometry relative="1" as="geometry" />
        </mxCell>
        <mxCell id="8kiIrgNkBxjkIp-F2U6g-30" style="edgeStyle=orthogonalEdgeStyle;rounded=0;orthogonalLoop=1;jettySize=auto;html=1;endArrow=none;endFill=0;" edge="1" parent="1" source="8kiIrgNkBxjkIp-F2U6g-10" target="8kiIrgNkBxjkIp-F2U6g-3">
          <mxGeometry relative="1" as="geometry">
            <Array as="points">
              <mxPoint x="230" y="500" />
            </Array>
          </mxGeometry>
        </mxCell>
        <UserObject label="Violation" link="references/eClassifiers/Violation/index.html" id="8kiIrgNkBxjkIp-F2U6g-10">
          <mxCell style="rounded=0;whiteSpace=wrap;html=1;fillColor=#d5e8d4;strokeColor=#82b366;" vertex="1" parent="1">
            <mxGeometry x="275" y="480" width="100" height="40" as="geometry" />
          </mxCell>
        </UserObject>
        <mxCell id="8kiIrgNkBxjkIp-F2U6g-28" style="edgeStyle=orthogonalEdgeStyle;rounded=0;orthogonalLoop=1;jettySize=auto;html=1;endArrow=block;endFill=0;" edge="1" parent="1" source="8kiIrgNkBxjkIp-F2U6g-11" target="8kiIrgNkBxjkIp-F2U6g-7">
          <mxGeometry relative="1" as="geometry" />
        </mxCell>
        <UserObject label="Failure" link="references/eClassifiers/Failure/index.html" id="8kiIrgNkBxjkIp-F2U6g-11">
          <mxCell style="rounded=0;whiteSpace=wrap;html=1;fillColor=#d5e8d4;strokeColor=#82b366;" vertex="1" parent="1">
            <mxGeometry x="405" y="480" width="100" height="40" as="geometry" />
          </mxCell>
        </UserObject>
        <mxCell id="8kiIrgNkBxjkIp-F2U6g-12" value="Legend" style="shape=table;startSize=30;container=1;collapsible=0;childLayout=tableLayout;fontSize=16;align=left;verticalAlign=top;fillColor=none;strokeColor=none;fontColor=#4D4D4D;fontStyle=1;spacingLeft=6;spacing=0;resizable=0;" vertex="1" parent="1">
          <mxGeometry x="770" y="510" width="90" height="90" as="geometry" />
        </mxCell>
        <mxCell id="8kiIrgNkBxjkIp-F2U6g-13" value="" style="shape=tableRow;horizontal=0;startSize=0;swimlaneHead=0;swimlaneBody=0;strokeColor=inherit;top=0;left=0;bottom=0;right=0;collapsible=0;dropTarget=0;fillColor=none;points=[[0,0.5],[1,0.5]];portConstraint=eastwest;fontSize=12;" vertex="1" parent="8kiIrgNkBxjkIp-F2U6g-12">
          <mxGeometry y="30" width="90" height="30" as="geometry" />
        </mxCell>
        <mxCell id="8kiIrgNkBxjkIp-F2U6g-14" value="Java" style="shape=partialRectangle;html=1;whiteSpace=wrap;connectable=0;strokeColor=#6c8ebf;overflow=hidden;fillColor=#dae8fc;top=0;left=0;bottom=0;right=0;pointerEvents=1;fontSize=12;align=left;spacingLeft=10;spacingRight=4;" vertex="1" parent="8kiIrgNkBxjkIp-F2U6g-13">
          <mxGeometry width="90" height="30" as="geometry">
            <mxRectangle width="90" height="30" as="alternateBounds" />
          </mxGeometry>
        </mxCell>
        <mxCell id="8kiIrgNkBxjkIp-F2U6g-15" value="" style="shape=tableRow;horizontal=0;startSize=0;swimlaneHead=0;swimlaneBody=0;strokeColor=inherit;top=0;left=0;bottom=0;right=0;collapsible=0;dropTarget=0;fillColor=none;points=[[0,0.5],[1,0.5]];portConstraint=eastwest;fontSize=12;" vertex="1" parent="8kiIrgNkBxjkIp-F2U6g-12">
          <mxGeometry y="60" width="90" height="30" as="geometry" />
        </mxCell>
        <mxCell id="8kiIrgNkBxjkIp-F2U6g-16" value="Ecore" style="shape=partialRectangle;html=1;whiteSpace=wrap;connectable=0;strokeColor=#82b366;overflow=hidden;fillColor=#d5e8d4;top=0;left=0;bottom=0;right=0;pointerEvents=1;fontSize=12;align=left;spacingLeft=10;spacingRight=4;" vertex="1" parent="8kiIrgNkBxjkIp-F2U6g-15">
          <mxGeometry width="90" height="30" as="geometry">
            <mxRectangle width="90" height="30" as="alternateBounds" />
          </mxGeometry>
        </mxCell>
        <mxCell id="8kiIrgNkBxjkIp-F2U6g-33" style="edgeStyle=orthogonalEdgeStyle;rounded=0;orthogonalLoop=1;jettySize=auto;html=1;startArrow=diamondThin;startFill=1;" edge="1" parent="1" source="8kiIrgNkBxjkIp-F2U6g-9" target="8kiIrgNkBxjkIp-F2U6g-2">
          <mxGeometry relative="1" as="geometry">
            <mxPoint x="580" y="290" as="sourcePoint" />
            <mxPoint x="580" y="380" as="targetPoint" />
            <Array as="points">
              <mxPoint x="690" y="270" />
            </Array>
          </mxGeometry>
        </mxCell>
        <mxCell id="8kiIrgNkBxjkIp-F2U6g-34" style="edgeStyle=orthogonalEdgeStyle;rounded=0;orthogonalLoop=1;jettySize=auto;html=1;startArrow=diamondThin;startFill=1;" edge="1" parent="1" source="8kiIrgNkBxjkIp-F2U6g-8" target="8kiIrgNkBxjkIp-F2U6g-4">
          <mxGeometry relative="1" as="geometry">
            <mxPoint x="580" y="290" as="sourcePoint" />
            <mxPoint x="580" y="380" as="targetPoint" />
            <Array as="points">
              <mxPoint x="570" y="580" />
            </Array>
          </mxGeometry>
        </mxCell>
        <mxCell id="8kiIrgNkBxjkIp-F2U6g-35" style="edgeStyle=orthogonalEdgeStyle;rounded=0;orthogonalLoop=1;jettySize=auto;html=1;startArrow=diamondThin;startFill=1;" edge="1" parent="1" source="8kiIrgNkBxjkIp-F2U6g-10" target="8kiIrgNkBxjkIp-F2U6g-4">
          <mxGeometry relative="1" as="geometry">
            <mxPoint x="590" y="300" as="sourcePoint" />
            <mxPoint x="590" y="390" as="targetPoint" />
            <Array as="points">
              <mxPoint x="320" y="580" />
            </Array>
          </mxGeometry>
        </mxCell>
        <mxCell id="8kiIrgNkBxjkIp-F2U6g-38" style="edgeStyle=orthogonalEdgeStyle;rounded=0;orthogonalLoop=1;jettySize=auto;html=1;startArrow=diamondThin;startFill=1;" edge="1" parent="1" source="8kiIrgNkBxjkIp-F2U6g-6" target="8kiIrgNkBxjkIp-F2U6g-5">
          <mxGeometry relative="1" as="geometry">
            <mxPoint x="580" y="420" as="sourcePoint" />
            <mxPoint x="515" y="590" as="targetPoint" />
            <Array as="points">
              <mxPoint x="810" y="350" />
              <mxPoint x="810" y="350" />
            </Array>
          </mxGeometry>
        </mxCell>
      </root>
    </mxGraphModel>
  </diagram>
</mxfile>
